<?xml version="1.0" encoding="UTF-8"?> <svg xmlns="http://www.w3.org/2000/svg" xmlns:xlink="http://www.w3.org/1999/xlink" id="GW_logo" data-name="GW logo" width="147" height="29" viewBox="0 0 147 29"><defs><clipPath id="clip-path"><rect id="Rectangle_33" data-name="Rectangle 33" width="147" height="29" fill="none"></rect></clipPath></defs><g id="Group_13" data-name="Group 13" clip-path="url(#clip-path)"><path id="Path_40" data-name="Path 40" d="M61.238,29.741c-4.009,0-7.173,2.691-7.173,6.747S57.229,43.2,61.238,43.2s7.153-2.672,7.153-6.709-3.144-6.747-7.153-6.747m0,10.88a4.142,4.142,0,1,1,4.146-4.133,4.04,4.04,0,0,1-4.146,4.133" transform="translate(-38.366 -21.294)" fill="#fff"></path><path id="Path_41" data-name="Path 41" d="M119.257,41h-5.718V30.639a.286.286,0,0,0-.295-.288h-2.221a.3.3,0,0,0-.314.288V43.153a.3.3,0,0,0,.314.289h8.234a.3.3,0,0,0,.314-.289V41.289a.291.291,0,0,0-.314-.288" transform="translate(-78.562 -21.73)" fill="#fff"></path><path id="Path_42" data-name="Path 42" d="M152.714,30.351H147.7a.3.3,0,0,0-.314.288V43.153a.3.3,0,0,0,.314.289h4.756a9.1,9.1,0,0,0,4.4-.942,5.993,5.993,0,0,0,2.987-5.613,6.279,6.279,0,0,0-1.612-4.536,7.109,7.109,0,0,0-5.522-2m2.24,10.245a6.272,6.272,0,0,1-2.692.519h-2.044V32.677h2.1a4.866,4.866,0,0,1,3.616,1.23,4.1,4.1,0,0,1,1.022,2.98,3.781,3.781,0,0,1-2,3.71" transform="translate(-104.591 -21.73)" fill="#fff"></path><path id="Path_43" data-name="Path 43" d="M207.389,30.351h-9.472a.3.3,0,0,0-.314.289V43.153a.3.3,0,0,0,.314.289h9.472a.3.3,0,0,0,.314-.289V41.289a.291.291,0,0,0-.314-.288h-6.956V38.1h5.935a.3.3,0,0,0,.295-.307V35.925a.3.3,0,0,0-.295-.288h-5.935V32.811h6.956a.3.3,0,0,0,.314-.288V30.64a.3.3,0,0,0-.314-.289" transform="translate(-140.225 -21.73)" fill="#fff"></path><path id="Path_44" data-name="Path 44" d="M251.079,30.351h-2.123a.3.3,0,0,0-.294.289v8.207l-6.426-8.189a.588.588,0,0,0-.531-.307H239.74a.3.3,0,0,0-.314.289V43.153a.3.3,0,0,0,.314.289h2.1a.3.3,0,0,0,.3-.289V34.964l6.426,8.189a.561.561,0,0,0,.55.289h1.966a.3.3,0,0,0,.294-.289V30.64a.3.3,0,0,0-.294-.289" transform="translate(-169.904 -21.73)" fill="#fff"></path><path id="Path_45" data-name="Path 45" d="M334.191,30.351h-2.358a.441.441,0,0,0-.491.327l-3.5,9.342H327.8l-3.42-9.342a.453.453,0,0,0-.49-.327h-2.359c-.294,0-.294.25-.235.4L322.577,34l-2.26,6.017h-.039l-3.419-9.342a.442.442,0,0,0-.491-.327H314.01c-.3,0-.3.25-.236.4l4.874,12.456a.423.423,0,0,0,.471.289h2.359a.413.413,0,0,0,.452-.289l2.1-5.267h.039l2.1,5.267c.079.231.216.289.452.289h2.358a.424.424,0,0,0,.472-.289l4.971-12.456c.079-.154.079-.4-.236-.4" transform="translate(-222.641 -21.73)" fill="#fff"></path><path id="Path_46" data-name="Path 46" d="M399.565,30.351h-9.472a.3.3,0,0,0-.315.289V43.153a.3.3,0,0,0,.315.289h9.472a.3.3,0,0,0,.314-.289V41.289a.291.291,0,0,0-.314-.288h-6.956V38.1h5.935a.3.3,0,0,0,.294-.307V35.925a.3.3,0,0,0-.294-.288h-5.935V32.811h6.956a.3.3,0,0,0,.314-.288V30.64a.3.3,0,0,0-.314-.289" transform="translate(-276.599 -21.73)" fill="#fff"></path><path id="Path_47" data-name="Path 47" d="M437.677,36.143a13.3,13.3,0,0,0-3.733-1.384c-1-.327-1.71-.692-1.71-1.4a1.044,1.044,0,0,1,.492-.885,2.836,2.836,0,0,1,1.454-.326,7.035,7.035,0,0,1,3.282.922.248.248,0,0,0,.373-.1l.9-1.864a.248.248,0,0,0-.118-.365,8.787,8.787,0,0,0-4.284-1,6.272,6.272,0,0,0-3.695.98,3.452,3.452,0,0,0,.276,5.728,18.306,18.306,0,0,0,3.537,1.327c.963.326,1.67.75,1.67,1.537a1.338,1.338,0,0,1-.57,1.115,2.609,2.609,0,0,1-1.532.384,6.61,6.61,0,0,1-3.6-1.192.244.244,0,0,0-.374.115l-.9,1.865a.257.257,0,0,0,.118.365,9.4,9.4,0,0,0,4.795,1.23,6.02,6.02,0,0,0,3.675-1.1,3.622,3.622,0,0,0,1.474-3.018,3.347,3.347,0,0,0-1.533-2.941" transform="translate(-304.512 -21.294)" fill="#fff"></path><path id="Path_48" data-name="Path 48" d="M477.937,30.351H467.089a.3.3,0,0,0-.294.289v1.884a.3.3,0,0,0,.294.288H471.1V43.153a.3.3,0,0,0,.295.289h2.24a.3.3,0,0,0,.295-.289V32.811h4.009a.3.3,0,0,0,.314-.288V30.64a.3.3,0,0,0-.314-.289" transform="translate(-331.252 -21.73)" fill="#fff"></path><path id="Path_49" data-name="Path 49" d="M291.6,23.39a43.921,43.921,0,0,0-1.229-6.092c-.615-1.962-1.409-3.926-2.141-5.86s-1.517-3.855-2.356-5.761S284.143,1.88,283.216,0q1.565,2.76,2.9,5.606t2.429,5.755c.727,1.941,1.515,3.909,2.08,5.885a31.872,31.872,0,0,1,.98,6.145" transform="translate(-200.978 0.001)" fill="#c2861a"></path><path id="Path_50" data-name="Path 50" d="M303.7,36.6a45.7,45.7,0,0,0,.3-6.582,23.745,23.745,0,0,0-1.092-6.461c-.665-2.11-1.592-4.2-2.082-6.4a10.794,10.794,0,0,1-.274-3.341,7.214,7.214,0,0,1,1.07-3.2,7.833,7.833,0,0,0-.672,3.215,11.956,11.956,0,0,0,.5,3.224c.6,2.122,1.565,4.18,2.247,6.337.168.54.323,1.081.448,1.633s.225,1.1.3,1.656a21.669,21.669,0,0,1,.188,3.333A27.644,27.644,0,0,1,303.7,36.6" transform="translate(-213.257 -7.6)" fill="#c2861a"></path><path id="Path_51" data-name="Path 51" d="M292.25,55.568c-.3-1.588-.437-3.187-.643-4.769a32.932,32.932,0,0,0-.886-4.69,11.762,11.762,0,0,0-2.122-4.316,8.1,8.1,0,0,0-1.936-1.694,9.992,9.992,0,0,0-2.552-1.113,8.867,8.867,0,0,1,2.777.844,7.99,7.99,0,0,1,2.223,1.659,9.186,9.186,0,0,1,1.5,2.138,12.732,12.732,0,0,1,.9,2.331,21.7,21.7,0,0,1,.725,4.8c.088,1.606.053,3.2.014,4.807" transform="translate(-201.614 -27.913)" fill="#c2861a"></path><path id="Path_52" data-name="Path 52" d="M12.262,41.379a7.055,7.055,0,0,1-4.909,1.685,7.66,7.66,0,0,1-5.47-1.96A6.634,6.634,0,0,1,0,36.185,6.453,6.453,0,0,1,2.024,31.4a7.96,7.96,0,0,1,5.509-2.058,9.3,9.3,0,0,1,4.428.961.307.307,0,0,1,.12.392l-.922,1.862a.273.273,0,0,1-.381.118,7.7,7.7,0,0,0-3.286-.784,4.542,4.542,0,0,0-3.326,1.352,4.186,4.186,0,0,0-1.142,2.94,4.362,4.362,0,0,0,1.122,3.057,4.435,4.435,0,0,0,3.306,1.293,4.57,4.57,0,0,0,2.2-.529,2.887,2.887,0,0,0,1.363-1.764H7.574a.3.3,0,0,1-.3-.294v-1.9a.309.309,0,0,1,.3-.314h6.271c.18,0,.3.079.3.314,0,2.117-.361,3.959-1.883,5.331" transform="translate(0 -21.01)" fill="#fff"></path></g></svg> 