<?xml version="1.0" encoding="UTF-8"?> <svg xmlns="http://www.w3.org/2000/svg" xmlns:xlink="http://www.w3.org/1999/xlink" id="Layer_1" data-name="Layer 1" viewBox="0 0 586 586"><defs><style> .cls-1, .cls-2, .cls-3 { fill: none; } .cls-4, .cls-5 { fill: #101820; isolation: isolate; opacity: .14; } .cls-4, .cls-6, .cls-7 { fill-rule: evenodd; } .cls-2 { stroke-linecap: round; stroke-linejoin: round; stroke-width: 14.56px; } .cls-2, .cls-3 { stroke: #101820; } .cls-8 { clip-path: url(#clippath); } .cls-9, .cls-6 { fill: #daaa00; } .cls-3 { stroke-miterlimit: 10; stroke-width: 10.92px; } .cls-7 { fill: #fff3e0; } </style><clipPath id="clippath"><path class="cls-1" d="M306.65,228.55l-15.29-46.61c-1.46-3.64-5.1-5.83-8.74-4.37-2.18,.73-3.64,2.18-4.37,4.37l-14.56,45.15c-.73,2.91-3.64,4.37-5.83,4.37h-47.33c-4.37,0-7.28,2.91-7.28,7.28,0,2.18,1.46,4.37,2.91,5.83l38.6,27.67c2.18,1.46,2.91,4.37,2.18,7.28l-14.56,45.15c-1.46,3.64,.73,8.01,5.1,9.47,2.18,.73,4.37,0,6.55-.73l37.87-27.67c2.18-1.46,5.1-1.46,8.01,0l38.6,27.67c3.64,2.18,8.01,1.46,10.2-1.46,1.46-2.18,1.46-4.37,.73-6.55l-14.56-45.15c-1.46-2.18-.73-5.1,1.46-6.55l38.6-27.67c2.91-2.18,4.37-6.55,1.46-10.2-1.46-2.18-3.64-2.91-5.83-2.91l-48.79,.73c-2.91-2.18-4.37-2.91-5.1-5.1Z"></path></clipPath></defs><g id="Layer_1-2" data-name="Layer 1-2"><path class="cls-9" d="M482.95,286.81V158.65c0-17.48-14.56-32.04-32.04-32.04H121.75c-17.48,0-32.04,14.56-32.04,32.04v198.08c0,17.48,14.56,32.04,32.04,32.04h26.94v72.09l78.65-72.09h223.56c17.48,0,32.04-14.56,32.04-32.04v-69.91Z"></path><path class="cls-5" d="M481.42,366.91H88.18l14.56,20.39h44.42v72.09l78.65-72.09h233.76"></path><path class="cls-2" d="M453.02,125.14H117.31c-16.02,0-29.13,13.11-29.13,29.13v203.9c0,16.02,13.11,29.13,29.13,29.13h29.86v72.09l78.65-72.09h226.48c16.02,0,29.13-13.11,29.13-29.13V153.54c0-15.29-12.38-28.4-27.67-28.4h-.73Z"></path><g id="Layer_2" data-name="Layer 2"><g id="Layer_1-2-2" data-name="Layer 1-2"><path class="cls-6" d="M306.65,228.55l-15.29-46.61c-1.46-3.64-5.1-5.83-8.74-4.37-2.18,.73-3.64,2.18-4.37,4.37l-14.56,45.15c-.73,2.91-3.64,4.37-5.83,4.37h-47.33c-4.37,0-7.28,2.91-7.28,7.28,0,2.18,1.46,4.37,2.91,5.83l38.6,27.67c2.18,1.46,2.91,4.37,2.18,7.28l-14.56,45.15c-1.46,3.64,.73,8.01,5.1,9.47,2.18,.73,4.37,0,6.55-.73l37.87-27.67c2.18-1.46,5.1-1.46,8.01,0l38.6,27.67c3.64,2.18,8.01,1.46,10.2-1.46,1.46-2.18,1.46-4.37,.73-6.55l-14.56-45.15c-1.46-2.18-.73-5.1,1.46-6.55l38.6-27.67c2.91-2.18,4.37-6.55,1.46-10.2-1.46-2.18-3.64-2.91-5.83-2.91l-48.79,.73c-2.91-2.18-4.37-2.91-5.1-5.1Z"></path><path class="cls-4" d="M306.65,228.55l-15.29-46.61c-1.46-3.64-5.1-5.83-8.74-4.37-2.18,.73-3.64,2.18-4.37,4.37l-14.56,45.15c-.73,2.91-3.64,4.37-5.83,4.37h-47.33c-4.37,0-7.28,2.91-7.28,7.28,0,2.18,1.46,4.37,2.91,5.83l38.6,27.67c2.18,1.46,2.91,4.37,2.18,7.28l-14.56,45.15c-1.46,3.64,.73,8.01,5.1,9.47,2.18,.73,4.37,0,6.55-.73l37.87-27.67c2.18-1.46,5.1-1.46,8.01,0l38.6,27.67c3.64,2.18,8.01,1.46,10.2-1.46,1.46-2.18,1.46-4.37,.73-6.55l-14.56-45.15c-1.46-2.18-.73-5.1,1.46-6.55l38.6-27.67c2.91-2.18,4.37-6.55,1.46-10.2-1.46-2.18-3.64-2.91-5.83-2.91l-48.79,.73c-2.91-2.18-4.37-2.91-5.1-5.1Z"></path><g class="cls-8"><path class="cls-7" d="M308.83,228.55l-15.29-46.61c-.73-3.64-5.1-5.83-8.74-4.37-2.18,.73-3.64,2.18-4.37,4.37l-14.56,45.15c-.73,2.91-3.64,4.37-5.83,4.37h-47.33c-4.37,0-7.28,2.91-7.28,7.28,0,2.18,1.46,4.37,2.91,5.83l38.6,27.67c2.18,1.46,2.91,4.37,2.18,7.28l-14.56,45.15c-1.46,3.64,.73,8.01,5.1,9.47,2.18,.73,4.37,0,6.55-.73l37.87-27.67c2.18-1.46,5.1-1.46,8.01,0l38.6,27.67c3.64,2.18,8.01,1.46,10.2-1.46,1.46-2.18,1.46-4.37,.73-6.55l-14.56-45.15c-1.46-2.18-.73-5.1,1.46-6.55l38.6-27.67c2.91-2.18,4.37-6.55,1.46-10.2-1.46-2.18-3.64-2.91-5.83-2.91l-48.79,.73c-2.91-2.18-4.37-2.91-5.1-5.1Z"></path></g><path id="SVGID" class="cls-3" d="M306.65,228.55l-15.29-46.61c-1.46-3.64-5.1-5.83-8.74-4.37-2.18,.73-3.64,2.18-4.37,4.37l-14.56,45.15c-.73,2.91-3.64,4.37-5.83,4.37h-47.33c-4.37,0-7.28,2.91-7.28,7.28,0,2.18,1.46,4.37,2.91,5.83l38.6,27.67c2.18,1.46,2.91,4.37,2.18,7.28l-14.56,45.15c-1.46,3.64,.73,8.01,5.1,9.47,2.18,.73,4.37,0,6.55-.73l37.87-27.67c2.18-1.46,5.1-1.46,8.01,0l38.6,27.67c3.64,2.18,8.01,1.46,10.2-1.46,1.46-2.18,1.46-4.37,.73-6.55l-14.56-45.15c-1.46-2.18-.73-5.1,1.46-6.55l38.6-27.67c2.91-2.18,4.37-6.55,1.46-10.2-1.46-2.18-3.64-2.91-5.83-2.91l-48.79,.73c-2.24-.01-4.37-2.91-5.1-5.1Z"></path></g></g></g></svg> 