<?xml version="1.0" encoding="UTF-8"?> <svg xmlns="http://www.w3.org/2000/svg" xmlns:xlink="http://www.w3.org/1999/xlink" width="192.101" height="192.101" viewBox="0 0 192.101 192.101"><defs><clipPath id="clip-path"><rect id="Rectangle_73" data-name="Rectangle 73" width="192.101" height="192.101" fill="#e6e7e8"></rect></clipPath></defs><g id="ico-card" transform="translate(-809.949 -769.95)"><g id="Group_39" data-name="Group 39" transform="translate(809.949 769.95)"><g id="Group_38" data-name="Group 38" clip-path="url(#clip-path)"><path id="Path_235" data-name="Path 235" d="M201.587,3.942A3.942,3.942,0,1,1,197.644,0a3.942,3.942,0,0,1,3.942,3.942" transform="translate(-101.594)" fill="#e6e7e8"></path><path id="Path_236" data-name="Path 236" d="M158.385,7.921a3.942,3.942,0,1,1-4.721-2.966,3.943,3.943,0,0,1,4.721,2.966" transform="translate(-78.987 -2.547)" fill="#e6e7e8"></path><path id="Path_237" data-name="Path 237" d="M117.152,21.413a3.942,3.942,0,1,1-5.262-1.841,3.942,3.942,0,0,1,5.262,1.841" transform="translate(-57.514 -10.06)" fill="#e6e7e8"></path><path id="Path_238" data-name="Path 238" d="M79.956,43.744a3.942,3.942,0,1,1-5.54-.624,3.942,3.942,0,0,1,5.54.624" transform="translate(-38.251 -22.165)" fill="#e6e7e8"></path><path id="Path_239" data-name="Path 239" d="M48.66,73.791a3.942,3.942,0,1,1-5.54.624,3.942,3.942,0,0,1,5.54-.624" transform="translate(-22.165 -38.251)" fill="#e6e7e8"></path><path id="Path_240" data-name="Path 240" d="M24.835,110.047a3.942,3.942,0,1,1-5.262,1.842,3.943,3.943,0,0,1,5.262-1.842" transform="translate(-10.06 -57.513)" fill="#e6e7e8"></path><path id="Path_241" data-name="Path 241" d="M9.675,150.7a3.942,3.942,0,1,1-4.721,2.966A3.942,3.942,0,0,1,9.675,150.7" transform="translate(-2.546 -78.987)" fill="#e6e7e8"></path><path id="Path_242" data-name="Path 242" d="M3.942,193.7A3.942,3.942,0,1,1,0,197.645,3.942,3.942,0,0,1,3.942,193.7" transform="translate(0 -101.595)" fill="#e6e7e8"></path><path id="Path_243" data-name="Path 243" d="M7.921,236.9a3.942,3.942,0,1,1-2.966,4.721A3.942,3.942,0,0,1,7.921,236.9" transform="translate(-2.547 -124.201)" fill="#e6e7e8"></path><path id="Path_244" data-name="Path 244" d="M21.413,278.136a3.942,3.942,0,1,1-1.841,5.262,3.942,3.942,0,0,1,1.841-5.262" transform="translate(-10.06 -145.674)" fill="#e6e7e8"></path><path id="Path_245" data-name="Path 245" d="M43.744,315.334a3.942,3.942,0,1,1-.624,5.54,3.942,3.942,0,0,1,.624-5.54" transform="translate(-22.165 -164.938)" fill="#e6e7e8"></path><path id="Path_246" data-name="Path 246" d="M73.791,346.629a3.942,3.942,0,1,1,.624,5.54,3.942,3.942,0,0,1-.624-5.54" transform="translate(-38.251 -181.024)" fill="#e6e7e8"></path><path id="Path_247" data-name="Path 247" d="M110.047,370.454a3.942,3.942,0,1,1,1.842,5.263,3.943,3.943,0,0,1-1.842-5.263" transform="translate(-57.513 -193.128)" fill="#e6e7e8"></path><path id="Path_248" data-name="Path 248" d="M150.7,385.613a3.942,3.942,0,1,1,2.966,4.721,3.943,3.943,0,0,1-2.966-4.721" transform="translate(-78.987 -200.642)" fill="#e6e7e8"></path><path id="Path_249" data-name="Path 249" d="M193.7,391.347a3.942,3.942,0,1,1,3.942,3.942,3.942,3.942,0,0,1-3.942-3.942" transform="translate(-101.595 -203.189)" fill="#e6e7e8"></path><path id="Path_250" data-name="Path 250" d="M236.9,387.368a3.942,3.942,0,1,1,4.721,2.966,3.942,3.942,0,0,1-4.721-2.966" transform="translate(-124.201 -200.642)" fill="#e6e7e8"></path><path id="Path_251" data-name="Path 251" d="M278.136,373.875a3.942,3.942,0,1,1,5.263,1.841,3.942,3.942,0,0,1-5.263-1.841" transform="translate(-145.674 -193.128)" fill="#e6e7e8"></path><path id="Path_252" data-name="Path 252" d="M315.334,351.546a3.942,3.942,0,1,1,5.54.624,3.942,3.942,0,0,1-5.54-.624" transform="translate(-164.938 -181.025)" fill="#e6e7e8"></path><path id="Path_253" data-name="Path 253" d="M346.629,321.5a3.942,3.942,0,1,1,5.54-.624,3.942,3.942,0,0,1-5.54.624" transform="translate(-181.024 -164.938)" fill="#e6e7e8"></path><path id="Path_254" data-name="Path 254" d="M370.454,285.241a3.942,3.942,0,1,1,5.262-1.842,3.943,3.943,0,0,1-5.262,1.842" transform="translate(-193.127 -145.674)" fill="#e6e7e8"></path><path id="Path_255" data-name="Path 255" d="M385.613,244.59a3.942,3.942,0,1,1,4.721-2.966,3.942,3.942,0,0,1-4.721,2.966" transform="translate(-200.642 -124.201)" fill="#e6e7e8"></path><path id="Path_256" data-name="Path 256" d="M391.347,201.587a3.942,3.942,0,1,1,3.942-3.942,3.942,3.942,0,0,1-3.942,3.942" transform="translate(-203.189 -101.595)" fill="#e6e7e8"></path><path id="Path_257" data-name="Path 257" d="M387.368,158.385a3.942,3.942,0,1,1,2.966-4.721,3.943,3.943,0,0,1-2.966,4.721" transform="translate(-200.642 -78.987)" fill="#e6e7e8"></path><path id="Path_258" data-name="Path 258" d="M373.875,117.152a3.942,3.942,0,1,1,1.841-5.262,3.942,3.942,0,0,1-1.841,5.262" transform="translate(-193.128 -57.514)" fill="#e6e7e8"></path><path id="Path_259" data-name="Path 259" d="M351.546,79.956a3.942,3.942,0,1,1,.624-5.54,3.942,3.942,0,0,1-.624,5.54" transform="translate(-181.025 -38.251)" fill="#e6e7e8"></path><path id="Path_260" data-name="Path 260" d="M321.5,48.66a3.942,3.942,0,1,1-.624-5.54,3.942,3.942,0,0,1,.624,5.54" transform="translate(-164.938 -22.165)" fill="#e6e7e8"></path><path id="Path_261" data-name="Path 261" d="M285.241,24.835a3.942,3.942,0,1,1-1.842-5.262,3.942,3.942,0,0,1,1.842,5.262" transform="translate(-145.674 -10.06)" fill="#e6e7e8"></path><path id="Path_262" data-name="Path 262" d="M244.59,9.675a3.942,3.942,0,1,1-2.966-4.721,3.942,3.942,0,0,1,2.966,4.721" transform="translate(-124.201 -2.546)" fill="#e6e7e8"></path></g></g><path id="Icon_awesome-money-check" data-name="Icon awesome-money-check" d="M0,61.4a4.551,4.551,0,0,0,4.55,4.55h81.9A4.551,4.551,0,0,0,91,61.4V15.9H0ZM63.7,31.825a2.274,2.274,0,0,1,2.275-2.275h13.65A2.274,2.274,0,0,1,81.9,31.825v4.55a2.274,2.274,0,0,1-2.275,2.275H65.975A2.274,2.274,0,0,1,63.7,36.375Zm0,17.063a1.137,1.137,0,0,1,1.138-1.137H80.763A1.137,1.137,0,0,1,81.9,48.888v2.275A1.137,1.137,0,0,1,80.763,52.3H64.838A1.137,1.137,0,0,1,63.7,51.163ZM9.1,35.238A1.137,1.137,0,0,1,10.238,34.1H53.463A1.137,1.137,0,0,1,54.6,35.238v2.275a1.137,1.137,0,0,1-1.138,1.138H10.238A1.137,1.137,0,0,1,9.1,37.513Zm0,13.65a1.137,1.137,0,0,1,1.137-1.137H35.263A1.137,1.137,0,0,1,36.4,48.888v2.275A1.137,1.137,0,0,1,35.263,52.3H10.238A1.137,1.137,0,0,1,9.1,51.163ZM88.725,2.25H2.275A2.274,2.274,0,0,0,0,4.525V11.35H91V4.525A2.274,2.274,0,0,0,88.725,2.25Z" transform="translate(861 832.132)" fill="#daaa00"></path></g></svg> 