<?xml version="1.0" encoding="UTF-8"?> <svg xmlns="http://www.w3.org/2000/svg" width="317.155" height="362.463" viewBox="0 0 317.155 362.463"><path id="Icon_awesome-calendar-check" data-name="Icon awesome-calendar-check" d="M308.66,113.27H8.5a8.5,8.5,0,0,1-8.5-8.5V79.289A33.981,33.981,0,0,1,33.981,45.308H67.962V8.5a8.5,8.5,0,0,1,8.5-8.5h28.317a8.5,8.5,0,0,1,8.5,8.5V45.308h90.616V8.5a8.5,8.5,0,0,1,8.5-8.5H240.7a8.5,8.5,0,0,1,8.5,8.5V45.308h33.981a33.981,33.981,0,0,1,33.981,33.981v25.486A8.5,8.5,0,0,1,308.66,113.27ZM8.5,135.924H308.66a8.5,8.5,0,0,1,8.5,8.5V328.482a33.981,33.981,0,0,1-33.981,33.981H33.981A33.981,33.981,0,0,1,0,328.482V144.419A8.5,8.5,0,0,1,8.5,135.924Zm235.952,67.924-19.942-20.1a8.495,8.495,0,0,0-12.014-.048l-75.067,74.464-32.551-32.814a8.5,8.5,0,0,0-12.014-.048l-20.1,19.943a8.495,8.495,0,0,0-.048,12.014L131.184,316.2a8.495,8.495,0,0,0,12.014.048L244.4,215.862a8.495,8.495,0,0,0,.048-12.014Z" fill="#f2f3f3"></path></svg> 