<?xml version="1.0" encoding="UTF-8"?> <svg xmlns="http://www.w3.org/2000/svg" width="349.858" height="482.064" viewBox="0 0 349.858 482.064"><g id="Group_51" data-name="Group 51" transform="translate(-1361.108 -728)"><path id="Icon_material-location-on" data-name="Icon material-location-on" d="M44.544,3A37.017,37.017,0,0,0,7.5,40.044c0,27.783,37.044,68.8,37.044,68.8s37.044-41.013,37.044-68.8A37.017,37.017,0,0,0,44.544,3Zm0,50.274a13.23,13.23,0,1,1,13.23-13.23A13.235,13.235,0,0,1,44.544,53.274Z" transform="translate(1629.378 1060.349)" fill="#f2f3f3"></path><path id="Icon_awesome-question" data-name="Icon awesome-question" d="M38.942,0C22.138,0,11.254,6.885,2.709,19.164A5.058,5.058,0,0,0,3.8,26.085l9.082,6.886a5.053,5.053,0,0,0,7-.873c5.274-6.607,9.185-10.41,17.423-10.41,6.477,0,14.488,4.168,14.488,10.449,0,4.748-3.919,7.186-10.314,10.771-7.458,4.181-17.326,9.385-17.326,22.4v2.061A5.053,5.053,0,0,0,29.2,72.422H44.461a5.053,5.053,0,0,0,5.053-5.053V66.154c0-9.023,26.373-9.4,26.373-33.817C75.886,13.949,56.812,0,38.942,0Zm-2.11,78.624A14.583,14.583,0,1,0,51.416,93.207,14.6,14.6,0,0,0,36.832,78.624Z" transform="translate(1359.309 1009.454)" fill="#f2f3f3"></path><path id="Icon_awesome-question-2" data-name="Icon awesome-question" d="M38.942,0C22.138,0,11.254,6.885,2.709,19.164A5.058,5.058,0,0,0,3.8,26.085l9.082,6.886a5.053,5.053,0,0,0,7-.873c5.274-6.607,9.185-10.41,17.423-10.41,6.477,0,14.488,4.168,14.488,10.449,0,4.748-3.919,7.186-10.314,10.771-7.458,4.181-17.326,9.385-17.326,22.4v2.061A5.053,5.053,0,0,0,29.2,72.422H44.461a5.053,5.053,0,0,0,5.053-5.053V66.154c0-9.023,26.373-9.4,26.373-33.817C75.886,13.949,56.812,0,38.942,0Zm-2.11,78.624A14.583,14.583,0,1,0,51.416,93.207,14.6,14.6,0,0,0,36.832,78.624Z" transform="translate(1635.075 728)" fill="#f2f3f3"></path><path id="Icon_awesome-question-3" data-name="Icon awesome-question" d="M140.052,0C77.5,0,36.99,25.627,5.183,71.331A18.827,18.827,0,0,0,9.24,97.092l33.8,25.632A18.807,18.807,0,0,0,69.1,119.474c19.629-24.591,34.19-38.75,64.851-38.75,24.108,0,53.927,15.515,53.927,38.893,0,17.673-14.589,26.749-38.393,40.094C121.729,175.273,85,194.642,85,243.093v7.67A18.807,18.807,0,0,0,103.8,269.57h56.791A18.807,18.807,0,0,0,179.4,250.763v-4.524c0-33.587,98.164-34.985,98.164-125.873C277.566,51.921,206.567,0,140.052,0ZM132.2,292.656a54.283,54.283,0,1,0,54.283,54.282A54.345,54.345,0,0,0,132.2,292.656Z" transform="translate(1396.353 808.843)" fill="#f2f3f3"></path></g></svg> 