<?xml version="1.0" encoding="UTF-8"?> <svg xmlns="http://www.w3.org/2000/svg" width="344" height="56" viewBox="0 0 344 56"><g id="icon-stars" transform="translate(-238 -839)"><path id="Icon_ionic-ios-star" data-name="Icon ionic-ios-star" d="M56.125,22.76H37.737L32.15,4.8a1.978,1.978,0,0,0-3.8,0L22.762,22.76H4.25a2.087,2.087,0,0,0-2,2.154,1.7,1.7,0,0,0,.038.363A2.11,2.11,0,0,0,3.125,26.8L18.237,38.267l-5.8,18.16a2.26,2.26,0,0,0,.688,2.423,1.868,1.868,0,0,0,1.125.525,2.343,2.343,0,0,0,1.25-.485L30.25,47.569,45,58.89a2.24,2.24,0,0,0,1.25.485,1.737,1.737,0,0,0,1.112-.525,2.231,2.231,0,0,0,.688-2.423l-5.8-18.16L57.238,26.69l.363-.337a2.329,2.329,0,0,0,.65-1.44A2.192,2.192,0,0,0,56.125,22.76Z" transform="translate(235.75 835.625)" fill="#f2f3f3"></path><path id="Icon_ionic-ios-star-2" data-name="Icon ionic-ios-star" d="M56.125,22.76H37.737L32.15,4.8a1.978,1.978,0,0,0-3.8,0L22.762,22.76H4.25a2.087,2.087,0,0,0-2,2.154,1.7,1.7,0,0,0,.038.363A2.11,2.11,0,0,0,3.125,26.8L18.237,38.267l-5.8,18.16a2.26,2.26,0,0,0,.688,2.423,1.868,1.868,0,0,0,1.125.525,2.343,2.343,0,0,0,1.25-.485L30.25,47.569,45,58.89a2.24,2.24,0,0,0,1.25.485,1.737,1.737,0,0,0,1.112-.525,2.231,2.231,0,0,0,.688-2.423l-5.8-18.16L57.238,26.69l.363-.337a2.329,2.329,0,0,0,.65-1.44A2.192,2.192,0,0,0,56.125,22.76Z" transform="translate(307.75 835.625)" fill="#f2f3f3"></path><path id="Icon_ionic-ios-star-3" data-name="Icon ionic-ios-star" d="M56.125,22.76H37.737L32.15,4.8a1.978,1.978,0,0,0-3.8,0L22.762,22.76H4.25a2.087,2.087,0,0,0-2,2.154,1.7,1.7,0,0,0,.038.363A2.11,2.11,0,0,0,3.125,26.8L18.237,38.267l-5.8,18.16a2.26,2.26,0,0,0,.688,2.423,1.868,1.868,0,0,0,1.125.525,2.343,2.343,0,0,0,1.25-.485L30.25,47.569,45,58.89a2.24,2.24,0,0,0,1.25.485,1.737,1.737,0,0,0,1.112-.525,2.231,2.231,0,0,0,.688-2.423l-5.8-18.16L57.238,26.69l.363-.337a2.329,2.329,0,0,0,.65-1.44A2.192,2.192,0,0,0,56.125,22.76Z" transform="translate(379.75 835.625)" fill="#f2f3f3"></path><path id="Icon_ionic-ios-star-4" data-name="Icon ionic-ios-star" d="M56.125,22.76H37.737L32.15,4.8a1.978,1.978,0,0,0-3.8,0L22.762,22.76H4.25a2.087,2.087,0,0,0-2,2.154,1.7,1.7,0,0,0,.038.363A2.11,2.11,0,0,0,3.125,26.8L18.237,38.267l-5.8,18.16a2.26,2.26,0,0,0,.688,2.423,1.868,1.868,0,0,0,1.125.525,2.343,2.343,0,0,0,1.25-.485L30.25,47.569,45,58.89a2.24,2.24,0,0,0,1.25.485,1.737,1.737,0,0,0,1.112-.525,2.231,2.231,0,0,0,.688-2.423l-5.8-18.16L57.238,26.69l.363-.337a2.329,2.329,0,0,0,.65-1.44A2.192,2.192,0,0,0,56.125,22.76Z" transform="translate(451.75 835.625)" fill="#f2f3f3"></path><path id="Icon_ionic-ios-star-5" data-name="Icon ionic-ios-star" d="M56.125,22.76H37.737L32.15,4.8a1.978,1.978,0,0,0-3.8,0L22.762,22.76H4.25a2.087,2.087,0,0,0-2,2.154,1.7,1.7,0,0,0,.038.363A2.11,2.11,0,0,0,3.125,26.8L18.237,38.267l-5.8,18.16a2.26,2.26,0,0,0,.688,2.423,1.868,1.868,0,0,0,1.125.525,2.343,2.343,0,0,0,1.25-.485L30.25,47.569,45,58.89a2.24,2.24,0,0,0,1.25.485,1.737,1.737,0,0,0,1.112-.525,2.231,2.231,0,0,0,.688-2.423l-5.8-18.16L57.238,26.69l.363-.337a2.329,2.329,0,0,0,.65-1.44A2.192,2.192,0,0,0,56.125,22.76Z" transform="translate(523.75 835.625)" fill="#f2f3f3"></path></g></svg> 