<?xml version="1.0" encoding="UTF-8"?> <svg xmlns="http://www.w3.org/2000/svg" xmlns:xlink="http://www.w3.org/1999/xlink" width="192.101" height="192.101" viewBox="0 0 192.101 192.101"><defs><clipPath id="clip-path"><rect id="Rectangle_73" data-name="Rectangle 73" width="192.101" height="192.101" fill="#e6e7e8"></rect></clipPath></defs><g id="icon-thumup" transform="translate(-809.949 -688.399)"><g id="Group_39" data-name="Group 39" transform="translate(809.949 688.399)"><g id="Group_38" data-name="Group 38" clip-path="url(#clip-path)"><path id="Path_235" data-name="Path 235" d="M201.587,3.942A3.942,3.942,0,1,1,197.644,0a3.942,3.942,0,0,1,3.942,3.942" transform="translate(-101.594)" fill="#e6e7e8"></path><path id="Path_236" data-name="Path 236" d="M158.385,7.921a3.942,3.942,0,1,1-4.721-2.966,3.943,3.943,0,0,1,4.721,2.966" transform="translate(-78.987 -2.547)" fill="#e6e7e8"></path><path id="Path_237" data-name="Path 237" d="M117.152,21.413a3.942,3.942,0,1,1-5.262-1.841,3.942,3.942,0,0,1,5.262,1.841" transform="translate(-57.514 -10.06)" fill="#e6e7e8"></path><path id="Path_238" data-name="Path 238" d="M79.956,43.744a3.942,3.942,0,1,1-5.54-.624,3.942,3.942,0,0,1,5.54.624" transform="translate(-38.251 -22.165)" fill="#e6e7e8"></path><path id="Path_239" data-name="Path 239" d="M48.66,73.791a3.942,3.942,0,1,1-5.54.624,3.942,3.942,0,0,1,5.54-.624" transform="translate(-22.165 -38.251)" fill="#e6e7e8"></path><path id="Path_240" data-name="Path 240" d="M24.835,110.047a3.942,3.942,0,1,1-5.262,1.842,3.943,3.943,0,0,1,5.262-1.842" transform="translate(-10.06 -57.513)" fill="#e6e7e8"></path><path id="Path_241" data-name="Path 241" d="M9.675,150.7a3.942,3.942,0,1,1-4.721,2.966A3.942,3.942,0,0,1,9.675,150.7" transform="translate(-2.546 -78.987)" fill="#e6e7e8"></path><path id="Path_242" data-name="Path 242" d="M3.942,193.7A3.942,3.942,0,1,1,0,197.645,3.942,3.942,0,0,1,3.942,193.7" transform="translate(0 -101.595)" fill="#e6e7e8"></path><path id="Path_243" data-name="Path 243" d="M7.921,236.9a3.942,3.942,0,1,1-2.966,4.721A3.942,3.942,0,0,1,7.921,236.9" transform="translate(-2.547 -124.201)" fill="#e6e7e8"></path><path id="Path_244" data-name="Path 244" d="M21.413,278.136a3.942,3.942,0,1,1-1.841,5.262,3.942,3.942,0,0,1,1.841-5.262" transform="translate(-10.06 -145.674)" fill="#e6e7e8"></path><path id="Path_245" data-name="Path 245" d="M43.744,315.334a3.942,3.942,0,1,1-.624,5.54,3.942,3.942,0,0,1,.624-5.54" transform="translate(-22.165 -164.938)" fill="#e6e7e8"></path><path id="Path_246" data-name="Path 246" d="M73.791,346.629a3.942,3.942,0,1,1,.624,5.54,3.942,3.942,0,0,1-.624-5.54" transform="translate(-38.251 -181.024)" fill="#e6e7e8"></path><path id="Path_247" data-name="Path 247" d="M110.047,370.454a3.942,3.942,0,1,1,1.842,5.263,3.943,3.943,0,0,1-1.842-5.263" transform="translate(-57.513 -193.128)" fill="#e6e7e8"></path><path id="Path_248" data-name="Path 248" d="M150.7,385.613a3.942,3.942,0,1,1,2.966,4.721,3.943,3.943,0,0,1-2.966-4.721" transform="translate(-78.987 -200.642)" fill="#e6e7e8"></path><path id="Path_249" data-name="Path 249" d="M193.7,391.347a3.942,3.942,0,1,1,3.942,3.942,3.942,3.942,0,0,1-3.942-3.942" transform="translate(-101.595 -203.189)" fill="#e6e7e8"></path><path id="Path_250" data-name="Path 250" d="M236.9,387.368a3.942,3.942,0,1,1,4.721,2.966,3.942,3.942,0,0,1-4.721-2.966" transform="translate(-124.201 -200.642)" fill="#e6e7e8"></path><path id="Path_251" data-name="Path 251" d="M278.136,373.875a3.942,3.942,0,1,1,5.263,1.841,3.942,3.942,0,0,1-5.263-1.841" transform="translate(-145.674 -193.128)" fill="#e6e7e8"></path><path id="Path_252" data-name="Path 252" d="M315.334,351.546a3.942,3.942,0,1,1,5.54.624,3.942,3.942,0,0,1-5.54-.624" transform="translate(-164.938 -181.025)" fill="#e6e7e8"></path><path id="Path_253" data-name="Path 253" d="M346.629,321.5a3.942,3.942,0,1,1,5.54-.624,3.942,3.942,0,0,1-5.54.624" transform="translate(-181.024 -164.938)" fill="#e6e7e8"></path><path id="Path_254" data-name="Path 254" d="M370.454,285.241a3.942,3.942,0,1,1,5.262-1.842,3.943,3.943,0,0,1-5.262,1.842" transform="translate(-193.127 -145.674)" fill="#e6e7e8"></path><path id="Path_255" data-name="Path 255" d="M385.613,244.59a3.942,3.942,0,1,1,4.721-2.966,3.942,3.942,0,0,1-4.721,2.966" transform="translate(-200.642 -124.201)" fill="#e6e7e8"></path><path id="Path_256" data-name="Path 256" d="M391.347,201.587a3.942,3.942,0,1,1,3.942-3.942,3.942,3.942,0,0,1-3.942,3.942" transform="translate(-203.189 -101.595)" fill="#e6e7e8"></path><path id="Path_257" data-name="Path 257" d="M387.368,158.385a3.942,3.942,0,1,1,2.966-4.721,3.943,3.943,0,0,1-2.966,4.721" transform="translate(-200.642 -78.987)" fill="#e6e7e8"></path><path id="Path_258" data-name="Path 258" d="M373.875,117.152a3.942,3.942,0,1,1,1.841-5.262,3.942,3.942,0,0,1-1.841,5.262" transform="translate(-193.128 -57.514)" fill="#e6e7e8"></path><path id="Path_259" data-name="Path 259" d="M351.546,79.956a3.942,3.942,0,1,1,.624-5.54,3.942,3.942,0,0,1-.624,5.54" transform="translate(-181.025 -38.251)" fill="#e6e7e8"></path><path id="Path_260" data-name="Path 260" d="M321.5,48.66a3.942,3.942,0,1,1-.624-5.54,3.942,3.942,0,0,1,.624,5.54" transform="translate(-164.938 -22.165)" fill="#e6e7e8"></path><path id="Path_261" data-name="Path 261" d="M285.241,24.835a3.942,3.942,0,1,1-1.842-5.262,3.942,3.942,0,0,1,1.842,5.262" transform="translate(-145.674 -10.06)" fill="#e6e7e8"></path><path id="Path_262" data-name="Path 262" d="M244.59,9.675a3.942,3.942,0,1,1-2.966-4.721,3.942,3.942,0,0,1,2.966,4.721" transform="translate(-124.201 -2.546)" fill="#e6e7e8"></path></g></g><path id="Icon_material-thumb-up" data-name="Icon material-thumb-up" d="M1.5,81.182H17.436V33.373H1.5ZM89.15,37.357a7.992,7.992,0,0,0-7.968-7.968H56.042l3.785-18.207.12-1.275a6,6,0,0,0-1.753-4.223L53.97,1.5,27.755,27.755A7.79,7.79,0,0,0,25.4,33.373V73.214a7.992,7.992,0,0,0,7.968,7.968H69.23a7.914,7.914,0,0,0,7.331-4.861L88.592,48.233a7.872,7.872,0,0,0,.558-2.908v-7.61l-.04-.04Z" transform="translate(860.675 737.818)" fill="#daaa00"></path></g></svg> 