<svg xmlns="http://www.w3.org/2000/svg" xmlns:xlink="http://www.w3.org/1999/xlink" width="214" height="46.774" viewBox="0 0 214 46.774">
  <defs>
    <clipPath id="clip-path">
      <rect id="Rectangle_25" data-name="Rectangle 25" width="214" height="46.774" fill="none"/>
    </clipPath>
  </defs>
  <g id="Group_21" data-name="Group 21" transform="translate(0 0)">
    <g id="Group_20" data-name="Group 20" transform="translate(0 0)" clip-path="url(#clip-path)">
      <path id="Path_14" data-name="Path 14" d="M126.286,32.329h2.086a.368.368,0,0,1,.368.368v6a.367.367,0,0,0,.368.368h7.036a.367.367,0,0,0,.368-.368v-6a.368.368,0,0,1,.368-.368h2.086a.368.368,0,0,1,.368.368V48.154a.368.368,0,0,1-.368.368H136.88a.368.368,0,0,1-.368-.368V42.066a.368.368,0,0,0-.368-.368h-7.036a.368.368,0,0,0-.368.368v6.088a.368.368,0,0,1-.368.368h-2.086a.368.368,0,0,1-.368-.368V32.7a.368.368,0,0,1,.368-.368" transform="translate(-65.937 -16.929)" fill="#fff"/>
      <path id="Path_15" data-name="Path 15" d="M173.675,48.493a8.655,8.655,0,0,1-3.423-.659,8.131,8.131,0,0,1-2.66-1.793,8.222,8.222,0,0,1-1.735-2.648,8.382,8.382,0,0,1-.624-3.227v-.046a8.385,8.385,0,0,1,.624-3.227,8.159,8.159,0,0,1,1.758-2.66,8.437,8.437,0,0,1,6.107-2.487,8.667,8.667,0,0,1,3.423.66,8.065,8.065,0,0,1,4.395,4.441,8.382,8.382,0,0,1,.625,3.227v.046a8.382,8.382,0,0,1-.625,3.227,8.167,8.167,0,0,1-1.758,2.66,8.434,8.434,0,0,1-6.107,2.487m.046-2.614a5.286,5.286,0,0,0,2.2-.452,5.205,5.205,0,0,0,1.715-1.226,5.662,5.662,0,0,0,1.118-1.816,6.088,6.088,0,0,0,.4-2.221v-.046a6.178,6.178,0,0,0-.4-2.232,5.537,5.537,0,0,0-1.129-1.827,5.472,5.472,0,0,0-1.739-1.238,5.553,5.553,0,0,0-4.411-.011,5.2,5.2,0,0,0-1.716,1.226,5.672,5.672,0,0,0-1.118,1.816,6.088,6.088,0,0,0-.4,2.221v.046a6.178,6.178,0,0,0,.4,2.232,5.534,5.534,0,0,0,1.128,1.827,5.447,5.447,0,0,0,1.74,1.238,5.255,5.255,0,0,0,2.211.463" transform="translate(-86.524 -16.624)" fill="#fff"/>
      <path id="Path_16" data-name="Path 16" d="M219.128,43.556l-3.734-5.593a.368.368,0,0,0-.674.2v9.985a.368.368,0,0,1-.368.368h-2.087a.368.368,0,0,1-.368-.368V32.7a.368.368,0,0,1,.368-.368h2.462a.369.369,0,0,1,.31.169l4.509,7.007a.367.367,0,0,0,.618,0l4.509-7.007a.369.369,0,0,1,.31-.169h2.462a.368.368,0,0,1,.368.368V48.153a.368.368,0,0,1-.368.368h-2.086a.368.368,0,0,1-.368-.368V38.119a.368.368,0,0,0-.674-.2l-3.863,5.649a.8.8,0,0,1-1.327-.007" transform="translate(-110.961 -16.929)" fill="#fff"/>
      <path id="Path_17" data-name="Path 17" d="M256.942,32.329h11.247a.368.368,0,0,1,.368.368v1.832a.368.368,0,0,1-.368.368h-8.424a.368.368,0,0,0-.368.368v3.428a.368.368,0,0,0,.368.368h7.383a.368.368,0,0,1,.368.368V41.26a.368.368,0,0,1-.368.368h-7.383A.368.368,0,0,0,259.4,42v3.59a.368.368,0,0,0,.368.368h8.54a.368.368,0,0,1,.368.368v1.833a.368.368,0,0,1-.368.368H256.942a.368.368,0,0,1-.368-.368V32.7a.368.368,0,0,1,.368-.368" transform="translate(-134.356 -16.929)" fill="#fff"/>
      <path id="Path_18" data-name="Path 18" d="M293.3,32.329H304.6a.368.368,0,0,1,.368.368v1.832a.368.368,0,0,1-.368.368h-8.47a.368.368,0,0,0-.368.368v3.728a.368.368,0,0,0,.368.368h7.43a.368.368,0,0,1,.368.368v1.833a.368.368,0,0,1-.368.368h-7.43a.368.368,0,0,0-.368.368v5.857a.368.368,0,0,1-.368.368H293.3a.368.368,0,0,1-.368-.368V32.7a.368.368,0,0,1,.368-.368" transform="translate(-153.397 -16.929)" fill="#fff"/>
      <path id="Path_19" data-name="Path 19" d="M330.356,32.329h2.086a.368.368,0,0,1,.368.368V48.154a.368.368,0,0,1-.368.368h-2.086a.368.368,0,0,1-.368-.368V32.7a.368.368,0,0,1,.368-.368" transform="translate(-172.799 -16.929)" fill="#fff"/>
      <path id="Path_20" data-name="Path 20" d="M347.547,32.329h11.247a.368.368,0,0,1,.368.368v1.832a.368.368,0,0,1-.368.368h-8.424a.368.368,0,0,0-.368.368v3.428a.368.368,0,0,0,.368.368h7.383a.368.368,0,0,1,.368.368V41.26a.368.368,0,0,1-.368.368h-7.383A.368.368,0,0,0,350,42v3.59a.368.368,0,0,0,.368.368h8.54a.368.368,0,0,1,.368.368v1.833a.368.368,0,0,1-.368.368H347.547a.368.368,0,0,1-.368-.368V32.7a.368.368,0,0,1,.368-.368" transform="translate(-181.802 -16.929)" fill="#fff"/>
      <path id="Path_21" data-name="Path 21" d="M383.967,32.329h2.086a.368.368,0,0,1,.368.368V45.586a.368.368,0,0,0,.368.368h7.776a.368.368,0,0,1,.368.368v1.833a.368.368,0,0,1-.368.368h-10.6a.368.368,0,0,1-.368-.368V32.7a.368.368,0,0,1,.368-.368" transform="translate(-200.873 -16.929)" fill="#fff"/>
      <path id="Path_22" data-name="Path 22" d="M418.514,32.7a.368.368,0,0,1,.368-.368h5.67a9.582,9.582,0,0,1,3.481.613,8.219,8.219,0,0,1,2.729,1.7,7.568,7.568,0,0,1,1.77,2.556,8.045,8.045,0,0,1,.624,3.181v.046a8.126,8.126,0,0,1-.624,3.192,7.541,7.541,0,0,1-1.77,2.568,8.37,8.37,0,0,1-2.729,1.712,9.425,9.425,0,0,1-3.481.624h-5.67a.368.368,0,0,1-.368-.368Zm6.014,13.257a6.3,6.3,0,0,0,2.313-.406,5.068,5.068,0,0,0,1.77-1.138,5.172,5.172,0,0,0,1.133-1.742,5.857,5.857,0,0,0,.4-2.2v-.047a5.945,5.945,0,0,0-.4-2.206,5.027,5.027,0,0,0-2.9-2.9,6.161,6.161,0,0,0-2.313-.418H421.7a.368.368,0,0,0-.368.368V45.586a.368.368,0,0,0,.368.368Z" transform="translate(-219.156 -16.929)" fill="#fff"/>
      <path id="Path_23" data-name="Path 23" d="M12.242,13.087V46.509a.844.844,0,0,0,.845.844H26.869a.844.844,0,0,0,.845-.844V37.085a.843.843,0,0,1,.372-.7l12.349-8.333a.844.844,0,0,0,.373-.7V15.465a.844.844,0,0,1,.844-.845h2.479a.845.845,0,0,1,.845.845V28.716a.845.845,0,0,1-.372.7L32.254,37.75a.844.844,0,0,0-.372.7v8.06a.844.844,0,0,0,.845.844H46.509a.844.844,0,0,0,.845-.844V13.087a.845.845,0,0,0-.845-.845H32.726a.845.845,0,0,0-.845.845v9.919a.844.844,0,0,1-.372.7L19.161,32.038a.844.844,0,0,0-.372.7V44.131a.844.844,0,0,1-.845.844H15.465a.844.844,0,0,1-.845-.844V30.879a.846.846,0,0,1,.372-.7l12.349-8.333a.844.844,0,0,0,.372-.7V13.087a.845.845,0,0,0-.845-.845H13.087a.845.845,0,0,0-.845.845M38.429,44.131a.844.844,0,0,1-.845.844H35.1a.844.844,0,0,1-.845-.844V39.714a.845.845,0,0,1,.372-.7l2.479-1.673a.845.845,0,0,1,1.317.7Zm6.546-10.508V44.131a.844.844,0,0,1-.845.844H41.651a.844.844,0,0,1-.844-.844V35.3a.844.844,0,0,1,.372-.7l2.479-1.673a.844.844,0,0,1,1.317.7M21.167,34a.845.845,0,0,1,.373-.7l12.349-8.333a.844.844,0,0,0,.372-.7v-8.8a.845.845,0,0,1,.845-.845h2.479a.845.845,0,0,1,.845.845V26.087a.845.845,0,0,1-.373.7L25.707,35.12a.845.845,0,0,0-.372.7v8.31a.844.844,0,0,1-.845.844H22.011a.844.844,0,0,1-.845-.844Zm0-18.538a.845.845,0,0,1,.845-.845h2.479a.845.845,0,0,1,.845.845v4.417a.844.844,0,0,1-.372.7l-2.479,1.673a.845.845,0,0,1-1.317-.7Zm-6.546,0a.845.845,0,0,1,.845-.845h2.479a.845.845,0,0,1,.845.845V24.3a.843.843,0,0,1-.373.7l-2.479,1.673a.844.844,0,0,1-1.317-.7Z" transform="translate(-6.411 -6.411)" fill="#db9c00"/>
      <path id="Path_24" data-name="Path 24" d="M0,.845V45.93a.845.845,0,0,0,.845.845H45.93a.845.845,0,0,0,.845-.845V.845A.845.845,0,0,0,45.93,0H.845A.845.845,0,0,0,0,.845M2.378,3.223a.845.845,0,0,1,.845-.845H43.552a.845.845,0,0,1,.845.845V43.552a.845.845,0,0,1-.845.845H3.223a.845.845,0,0,1-.845-.845Z" transform="translate(0 0)" fill="#db9c00"/>
    </g>
  </g>
</svg>
