<?xml version="1.0" encoding="UTF-8"?> <svg xmlns="http://www.w3.org/2000/svg" id="Layer_1" data-name="Layer 1" viewBox="0 0 586 586"><defs><style> .cls-1 { fill: none; stroke: #101820; stroke-linecap: round; stroke-linejoin: round; stroke-width: 12.82px; } .cls-2 { fill: #fff3e0; } .cls-3 { fill: #f17378; } .cls-4 { fill: #daaa00; } .cls-5 { fill: #101820; isolation: isolate; opacity: .14; } </style></defs><g id="Layer_2" data-name="Layer 2"><g id="Layer_1-2" data-name="Layer 1-2"><path class="cls-2" d="M90.48,222.29H427.95v217.93H90.48V222.29Z"></path><path class="cls-4" d="M90.48,149.67H427.95v72.62H90.48v-72.62Z"></path><circle class="cls-3" cx="126.76" cy="186.02" r="6.03"></circle><circle class="cls-3" cx="169.13" cy="186.02" r="6.03"></circle><circle class="cls-3" cx="211.5" cy="186.02" r="6.03"></circle><path class="cls-5" d="M90.48,222.29h24.23v217.93h-24.23V222.29Zm0-72.62h24.23v72.62h-24.23v-72.62Z"></path><path class="cls-1" d="M90.48,222.29v217.93H427.95V222.29M90.48,149.67H427.95v72.62H90.48v-72.62Z"></path><circle class="cls-1" cx="126.76" cy="186.02" r="6.03"></circle><circle class="cls-1" cx="169.13" cy="186.02" r="6.03"></circle><circle class="cls-1" cx="211.5" cy="186.02" r="6.03"></circle><path class="cls-4" d="M311.81,367.54c71.47-40.06,73.52-86.79,73.52-137.74h-55.12l91.79-128.51,91.53,128.51h-54.8c0,133.13-101.53,137.74-146.91,137.74Z"></path><path class="cls-5" d="M331.04,367.03c70.51-39.93,72.62-86.34,72.62-137.23h-19.23c0,51.28-1.99,97.68-73.45,137.74,6.41,0,13.2,0,19.81-.51h.26Zm99.86-252.48l-9.49-13.27-91.85,128.51h19.23l82.11-115.25Z"></path><path class="cls-1" d="M311.81,367.54c71.47-40.06,73.52-86.79,73.52-137.74h-55.12l91.79-128.51,91.53,128.51h-54.8c0,133.13-101.53,137.74-146.91,137.74Z"></path></g></g></svg> 