<?xml version="1.0" encoding="UTF-8"?> <svg xmlns="http://www.w3.org/2000/svg" id="Layer_1" data-name="Layer 1" viewBox="0 0 586 586"><defs><style> .cls-1 { fill: #fff3e0; } .cls-2 { fill: #daaa00; } .cls-3 { fill: #d49389; } .cls-4 { opacity: .15; } .cls-5 { fill: none; stroke: #101820; stroke-linecap: round; stroke-linejoin: round; stroke-width: 13.53px; } </style></defs><path class="cls-1" d="M417.48,177.15l-23.36-63.14-173.62,63.14"></path><path class="cls-3" d="M368.86,278.16h101.02c6.94,0,12.63,5.68,12.63,12.63v50.51c0,6.94-5.68,12.63-12.63,12.63h-101.02c-6.94,0-12.63-5.68-12.63-12.63v-50.51c0-6.94,5.68-12.63,12.63-12.63Z"></path><path class="cls-2" d="M368.86,278.16h101.02c6.94,0,12.63,5.68,12.63,12.63v50.51c0,6.94-5.68,12.63-12.63,12.63h-101.02c-6.94,0-12.63-5.68-12.63-12.63v-50.51c0-6.94,5.68-12.63,12.63-12.63Z"></path><path class="cls-2" d="M356.24,341.3v-50.51c0-6.94,5.68-12.63,12.63-12.63h88.39v-82.08c0-10.73-8.21-18.94-18.94-18.94H122.63c-10.73,0-18.94,8.21-18.94,18.94v239.92c0,10.73,8.21,18.94,18.94,18.94H438.31c10.73,0,18.94-8.21,18.94-18.94v-82.08h-88.39c-6.94,0-12.63-5.68-12.63-12.63Z"></path><g class="cls-4"><path class="cls-2" d="M368.86,353.93c-6.94,0-12.63-5.68-12.63-12.63v-37.88c-6.94,0-12.63,5.68-12.63,12.63v50.51c0,6.94,5.68,12.63,12.63,12.63h101.02v-25.25h-88.39Z"></path><path class="cls-2" d="M147.89,417.06c-10.73,0-18.94-8.21-18.94-18.94V177.15h-6.31c-10.73,0-18.94,8.21-18.94,18.94v239.92c0,10.73,8.21,18.94,18.94,18.94H438.31c10.73,0,18.94-8.21,18.94-18.94v-18.94H147.89Z"></path></g><path class="cls-5" d="M417.48,177.15l-23.36-63.14-173.62,63.14m236.76,176.78v82.08c0,10.73-8.21,18.94-18.94,18.94H122.63c-10.73,0-18.94-8.21-18.94-18.94V196.09c0-10.73,8.21-18.94,18.94-18.94H438.31c10.73,0,18.94,8.21,18.94,18.94v82.08"></path><path class="cls-5" d="M368.86,278.16h101.02c6.94,0,12.63,5.68,12.63,12.63v50.51c0,6.94-5.68,12.63-12.63,12.63h-101.02c-6.94,0-12.63-5.68-12.63-12.63v-50.51c0-6.94,5.68-12.63,12.63-12.63Z"></path><path class="cls-5" d="M166.83,215.03h12.63m50.51,0h12.63m50.51,0h12.63m50.51,0h12.63m-176.78,202.03h12.63m50.51,0h12.63m50.51,0h12.63m50.51,0h12.63"></path><circle class="cls-5" cx="400.43" cy="316.05" r="6.31"></circle></svg> 