<?xml version="1.0" encoding="UTF-8"?> <svg xmlns="http://www.w3.org/2000/svg" id="Layer_1" data-name="Layer 1" viewBox="0 0 586 586"><defs><style> .cls-1 { fill: #fff3e0; } .cls-2 { fill: #daaa00; } .cls-3, .cls-4 { fill: #101820; } .cls-4 { isolation: isolate; opacity: .14; } .cls-5 { fill: none; stroke: #101820; stroke-linecap: round; stroke-linejoin: round; stroke-width: 13.7px; } </style></defs><path class="cls-1" d="M283.02,367.85l129.69,130.35,72.49-72.49-129.69-129.69"></path><path class="cls-4" d="M283.02,367.85l29.93,30.59,72.49-72.49-29.93-29.93"></path><path class="cls-1" d="M302.31,242.16L170.63,111.14l-71.83,71.16,131.02,132.35"></path><path class="cls-1" d="M391.56,152.17l41.83-41.83,53.4,53.34-41.83,41.83-53.4-53.34Z"></path><path class="cls-2" d="M148.08,395.39l243.14-243.14,53.34,53.34-243.08,243.14-53.4-53.34Z"></path><path class="cls-1" d="M201.89,448.99l-53.2-53.2-29.26,65.84,16.63,16.63,65.84-29.26Z"></path><path class="cls-3" d="M106.12,491.55l29.93-13.3-16.63-16.63-13.3,29.93Z"></path><path class="cls-4" d="M445.3,205.58l-19.95-19.29-242.74,243.41,19.29,19.29,243.41-243.41Z"></path><path class="cls-5" d="M302.31,242.16L170.63,111.14l-71.83,71.16,131.02,132.35m-81.14,81.14l-42.56,95.77,95.77-42.56-53.2-53.2ZM445.3,205.58l41.9-41.23-53.2-53.2-41.9,41.23"></path><path class="cls-5" d="M148.68,395.78l243.41-243.41,53.2,53.2-243.41,243.41"></path><path class="cls-5" d="M283.02,367.85l129.69,130.35,72.49-72.49-129.69-129.69m13.97,158.28l36.58-36.58m-220.13-147.64l39.9-40.57m103.75,184.89l29.93-29.93M144.03,227.53l29.26-29.26"></path></svg> 