<?xml version="1.0" encoding="UTF-8"?> <svg xmlns="http://www.w3.org/2000/svg" id="Layer_1" data-name="Layer 1" viewBox="0 0 586 586"><defs><style> .cls-1 { fill: none; stroke: #101820; stroke-linecap: round; stroke-linejoin: round; stroke-width: 13.87px; } .cls-2 { fill: #fff3e0; } .cls-3 { fill: #f17d7b; } .cls-4 { fill: #daaa00; } .cls-5 { fill: #101820; isolation: isolate; opacity: .14; } </style></defs><path class="cls-2" d="M98.8,195.43H487.2V472.85H98.8V195.43Z"></path><path class="cls-4" d="M98.8,112.2H487.2v83.23H98.8V112.2Z"></path><circle class="cls-3" cx="140.42" cy="153.82" r="6.94"></circle><path class="cls-5" d="M98.8,195.43h27.74V472.85h-27.74V195.43Zm0-83.23h27.74v83.23h-27.74V112.2Zm55.48,138.71h55.48v55.48h-55.48v-55.48Zm110.97,0h55.48v55.48h-55.48v-55.48Zm110.97,0h55.48v55.48h-55.48v-55.48Zm-221.94,110.97h55.48v55.48h-55.48v-55.48Zm110.97,0h55.48v55.48h-55.48v-55.48Zm110.97,0h55.48v55.48h-55.48v-55.48Z"></path><path class="cls-1" d="M98.8,112.2H487.2v83.23H98.8V112.2Zm0,83.23V472.85H487.2V195.43"></path><path class="cls-1" d="M154.29,250.91h55.48v55.48h-55.48v-55.48Zm110.97,0h55.48v55.48h-55.48v-55.48Zm110.97,0h55.48v55.48h-55.48v-55.48Zm-221.94,110.97h55.48v55.48h-55.48v-55.48Zm110.97,0h55.48v55.48h-55.48v-55.48Zm110.97,0h55.48v55.48h-55.48v-55.48Z"></path><circle class="cls-1" cx="140.42" cy="153.82" r="6.94"></circle><circle class="cls-1" cx="188.97" cy="153.82" r="6.94"></circle><circle class="cls-1" cx="237.52" cy="153.82" r="6.94"></circle></svg> 