<?xml version="1.0" encoding="UTF-8"?> <svg xmlns="http://www.w3.org/2000/svg" id="Layer_1" data-name="Layer 1" viewBox="0 0 586 586"><defs><style> .cls-1 { fill: #fff3e0; } .cls-2, .cls-3 { fill: #daaa00; } .cls-3, .cls-4 { isolation: isolate; opacity: .14; } .cls-4 { fill: #101820; } .cls-5 { fill: none; stroke: #101820; stroke-linecap: round; stroke-linejoin: round; stroke-width: 14.25px; } </style></defs><path class="cls-2" d="M442.48,289.62h-27.99l-29.26-38.16h-101.77l-29.26,38.16H124.46c-10.56,0-19.08,8.52-19.08,19.08v152.65c0,10.56,8.52,19.08,19.08,19.08H442.48c10.56,0,19.08-8.52,19.08-19.08v-152.65c0-10.56-8.59-19.08-19.08-19.08Z"></path><circle class="cls-1" cx="181.71" cy="365.94" r="25.44"></circle><circle class="cls-1" cx="334.36" cy="372.3" r="69.96"></circle><path class="cls-4" d="M334.36,442.27c-38.67-.06-69.9-31.48-69.77-70.16,0-12.21,3.24-24.23,9.35-34.79-33.58,19.08-45.35,61.82-26.21,95.41,19.14,33.58,61.82,45.35,95.41,26.21,10.94-6.23,19.97-15.27,26.21-26.21-10.62,6.23-22.71,9.54-34.98,9.54Z"></path><circle class="cls-2" cx="334.36" cy="372.3" r="38.16"></circle><path class="cls-1" d="M245.31,98.8h178.09v101.77H245.31V98.8Z"></path><path class="cls-1" d="M283.47,251.45l-12.72-50.88h127.21l-12.72,50.88h-101.77Zm-139.93,0h50.88v38.16h-50.88v-38.16Z"></path><circle class="cls-1" cx="340.72" cy="365.94" r="12.72"></circle><path class="cls-3" d="M245.31,98.8l101.77,101.77h34.35l-101.77-101.77h-34.35Zm178.09,16.54l-16.54-16.54h-85.23l101.77,101.77V115.34Z"></path><path class="cls-5" d="M143.54,289.62v-38.16h50.88v38.16"></path><path class="cls-5" d="M442.48,289.62h-27.99l-29.26-38.16h-101.77l-29.26,38.16H124.46c-10.56,0-19.08,8.52-19.08,19.08v152.65c0,10.56,8.52,19.08,19.08,19.08H442.48c10.56,0,19.08-8.52,19.08-19.08v-152.65c0-10.56-8.59-19.08-19.08-19.08Z"></path><circle class="cls-5" cx="181.71" cy="365.94" r="25.44"></circle><circle class="cls-5" cx="334.36" cy="372.3" r="69.96"></circle><circle class="cls-5" cx="334.36" cy="372.3" r="38.16"></circle><path class="cls-5" d="M245.31,98.8h178.09v101.77H245.31V98.8Zm25.44,101.77l12.72,50.88m114.49-50.88l-12.72,50.88m-89.05-101.77h76.33"></path></svg> 