<?xml version="1.0" encoding="UTF-8"?> <svg xmlns="http://www.w3.org/2000/svg" id="Layer_1" data-name="Layer 1" viewBox="0 0 586 586"><defs><style> .cls-1 { fill: none; stroke: #101820; stroke-linecap: round; stroke-linejoin: round; stroke-width: 12.79px; } .cls-2 { fill: #daaa00; } .cls-3 { fill: #101820; } .cls-4 { opacity: .14; } </style></defs><g id="Layer_2" data-name="Layer 2"><g id="Layer_1-2" data-name="Layer 1-2"><path class="cls-2" d="M305.79,156.61c-17.27-17.27-37.74-17.27-51.18-3.84-8.32,8.32-11.51,12.79-25.59,12.79-11.51,0-25.59-15.99-25.59-15.99l-102.35,102.35,40.94,41.58-8.32,8.32c-10.23,10.24-10.23,26.23,0,36.46,10.23,10.23,26.23,10.23,36.46,0l-8.96,8.96c-8.96,10.87-7.68,26.87,2.56,35.82,9.6,8.32,23.67,8.32,33.26,0l8.96-8.96c-9.6,10.23-9.6,26.23,.64,36.46,9.6,9.6,25.59,9.6,35.18,0l7.04-7.04c-9.6,10.23-9.6,26.23,.64,36.46,9.6,9.6,25.59,9.6,35.18,0l7.68-7.68,7.68,7.68c10.23,9.6,26.87,8.96,36.46-1.92,8.32-8.96,8.96-23.03,1.28-32.62h0l5.76,5.76c10.23,9.6,26.23,9.6,36.46-.64,9.6-9.6,9.6-25.59,0-35.18l8.96,8.96c10.23,10.23,26.23,10.23,36.46,0,10.24-10.23,10.23-26.23,0-36.46l-21.75-22.39h0l13.43,12.79c10.23,10.23,26.23,10.23,36.46,0,10.24-10.23,10.23-26.23,0-36.46h0l-8.32-8.32,39.66-39.66-113.86-113.86h-26.87c-14.71,.64-28.15,6.4-38.38,16.63Z"></path><g class="cls-4"><path class="cls-3" d="M188.09,319.73l10.87-10.87-10.87,10.87-1.28,1.28h0l1.28-1.28Zm87.64,57.57l-8.96,8.96h0l8.96-8.96h0Zm74.84-33.9l-1.28,2.56c10.23,8.96,21.11,18.55,26.87,24.31,12.15,12.15-4.48,35.18-27.51,43.5,12.15,7.68,27.51,4.48,35.18-7.68,6.4-10.23,5.12-23.03-3.2-31.98l-30.07-30.7Z"></path><path class="cls-3" d="M344.18,415.04c-10.87,16.63-35.82,9.6-42.86,7.04l-4.48,4.48c-12.79,6.4-28.15,1.28-34.54-11.51-4.48-9.6-3.2-21.11,4.48-28.79l-7.04,7.04h0c-10.24,9.6-26.87,8.96-35.82-1.92-8.96-9.6-8.96-24.31,0-34.54l.64-1.28,17.27-17.27-17.27,17.27-.64,.64-8.96,8.96c-10.24,9.6-26.87,8.96-35.82-1.92-8.96-9.6-8.96-24.31,0-34.54l3.84-3.84,5.12-5.12c-10.24,9.6-26.23,8.96-36.46-1.28-9.6-9.6-9.6-25.59,0-35.18l-17.27,17.27c-9.6,10.24-8.96,26.87,1.28,36.46,9.6,8.96,24.31,8.96,34.54,0l-8.96,8.96c-8.32,11.51-6.4,27.51,5.12,35.82,8.96,7.04,21.75,7.04,30.71,0l8.96-8.96c-9.6,10.23-9.6,26.23,.64,36.46,9.6,9.6,25.59,9.6,35.18,0l7.04-7.04c-9.6,10.23-9.6,26.23,.64,36.46,9.6,9.6,25.59,9.6,35.18,0l7.68-7.68,7.68,7.68c10.23,9.6,26.23,9.6,36.46-.64,7.04-5.76,9.6-14.71,7.68-23.03Zm6.4-236.68c-12.79-12.79-31.98,12.79-51.18,25.59-17.27,11.51-28.79,2.56-31.34-3.84-2.56,14.07,6.4,26.87,20.47,29.43,8.32,1.28,16.63-1.28,23.03-7.04l23.03-23.03,110.67,94.03,18.55-18.55c-31.34-26.23-102.99-87-113.22-96.59Z"></path></g><path class="cls-1" d="M382.56,303.1l35.18,35.18c10.23,10.23,26.23,10.23,36.46,0,10.24-10.23,10.23-26.23,0-36.46h0l-86.36-85.72c-15.35-15.35-32.62-17.27-51.18,1.28l-5.12,5.12c-10.23,9.6-26.23,9.6-36.46-.64-9.6-9.6-9.6-25.59,0-35.18l17.91-18.55c21.11-20.47,32.62-28.15,50.54-28.15h27.51l113.86,113.86-39.66,39.66"></path><path class="cls-1" d="M382.56,303.1l43.5,43.5c8.96,10.87,7.04,26.87-3.84,35.82-9.6,7.68-23.03,7.68-32.62,0l-39.02-39.02"></path><path class="cls-1" d="M350.57,343.4l30.7,30.7c10.87,8.96,11.51,25.59,2.56,35.82-8.96,10.23-25.59,11.51-35.82,2.56l-1.28-1.28-1.28-1.28-17.91-17.91"></path><path class="cls-1" d="M328.82,394.57l8.96,8.96c9.6,10.23,9.6,26.23-.64,36.46-9.6,9.6-25.59,9.6-35.18,0l-7.04-7.04m-152.89-139.45l-40.94-41.58,102.35-102.35s13.43,15.99,24.95,15.99c14.07,0,17.27-4.48,25.59-12.79,13.43-13.43,33.9-13.43,51.18,3.84"></path><path class="cls-1" d="M188.09,319.73c10.87-9.6,11.51-25.59,2.56-35.82-9.6-10.87-25.59-11.51-35.82-2.56q-.64,.64-1.28,1.28l-1.28,1.28-18.55,17.91c-10.23,10.24-10.23,26.23,0,36.46,10.23,10.23,26.23,10.23,36.46,0l17.91-18.55Z"></path><path class="cls-1" d="M224.55,356.19c10.24-10.23,10.24-26.23,0-36.46-10.24-10.24-26.23-10.24-36.46,0l-26.87,26.87c-8.96,11.51-7.68,27.51,3.2,36.46,9.6,7.68,23.03,7.68,32.62,0l27.51-26.87Zm35.82,36.46c9.6-10.23,8.96-26.87-1.92-36.46-9.6-8.96-24.31-8.96-34.54,0l-17.91,17.91c-9.6,10.23-8.96,26.87,1.92,36.46,9.6,8.96,24.31,8.96,34.54,0l17.91-17.91Z"></path><path class="cls-1" d="M294.92,430.39c10.23-10.23,10.23-26.23,0-36.46-10.24-10.23-26.23-10.23-36.46,0h0l-8.96,8.96c-10.24,10.23-10.24,26.23,0,36.46,10.24,10.24,26.23,10.23,36.46,0l8.96-8.96Z"></path></g></g></svg> 