<?xml version="1.0" encoding="UTF-8"?> <svg xmlns="http://www.w3.org/2000/svg" id="Layer_1" data-name="Layer 1" viewBox="0 0 586 586"><defs><style> .cls-1 { fill: #fff3e0; } .cls-2 { fill: #daaa00; } .cls-3 { fill: #101820; isolation: isolate; opacity: .14; } .cls-4 { fill: none; stroke: #101820; stroke-linecap: round; stroke-linejoin: round; stroke-width: 14.36px; } </style></defs><g id="Layer_2" data-name="Layer 2"><g id="Layer_1-2" data-name="Layer 1-2"><path class="cls-2" d="M98.8,238.8l103.37,12.92v206.02H98.8V238.8Z"></path><circle class="cls-2" cx="150.49" cy="302.69" r="6.46"></circle><path class="cls-1" d="M202.17,444.83h12.92c25.84,0,77.53,25.84,103.37,25.84h103.37c14.36-.72,25.12-12.92,24.41-27.28-.72-12.92-11.49-23.69-24.41-24.41h12.92c14.36,0,25.84-11.49,25.84-25.84s-12.2-25.84-26.56-25.84h12.92c14.36,0,25.84-11.49,25.84-25.84s-11.49-25.84-25.84-25.84h12.92c14.36,.72,26.56-10.05,27.28-24.41,.72-14.36-10.05-26.56-24.41-27.28h-132.08c8.61-38.05,12.92-76.81,12.92-116.29,0-14.36-11.49-25.84-25.84-25.84s-25.84,11.49-25.84,25.84c0,0-11.49,127.78-90.45,140.7v156.49h.72Z"></path><path class="cls-3" d="M202.17,284.03v-32.3l-103.37-12.92v33.02l103.37,12.2Zm0,160.8h12.92c6.46,0,12.92,1.44,19.38,2.87v-145.01c58.15-18.66,71.07-122.03,71.07-147.88,0-22.97,29.43-20.1,37.33-15.07-4.31-13.64-18.66-21.54-32.3-17.23-11.49,3.59-18.66,14.36-17.95,25.84,0,0-11.49,127.78-89.73,140.7v155.77h-.72Zm115.57-160.8h129.21c20.82,0,33.02,8.61,37.33,15.07,.72-2.87,1.44-5.74,1.44-8.61,0-14.36-11.49-25.84-25.84-25.84h-127.78l-14.36,19.38Z"></path><path class="cls-4" d="M202.17,438.36h12.92c25.84,0,77.53,25.84,103.37,25.84h103.37c14.36-.72,25.12-12.92,24.41-27.28-.72-12.92-11.49-23.69-24.41-24.41h12.92c14.36,0,25.84-11.49,25.84-25.84s-11.49-25.84-25.84-25.84h12.92c14.36,0,25.84-11.49,25.84-25.84s-11.49-25.84-25.84-25.84m-.72,0h12.92c14.36-.72,25.12-12.92,24.41-27.28-.72-12.92-11.49-23.69-24.41-24.41h-129.21c8.61-38.05,12.92-76.81,12.92-116.29,0-14.36-11.49-25.84-25.84-25.84s-25.84,11.49-25.84,25.84c0,0-11.49,127.78-89.73,140.7m-103.37-49.53l103.37,12.92v206.02H98.8V232.34Z"></path><circle class="cls-4" cx="150.49" cy="296.23" r="6.46"></circle></g></g></svg> 